<svg viewBox="0 0 32 32" xmlns="http://www.w3.org/2000/svg">
  <path d="M16 0C7.16 0 0 7.16 0 16c0 2.82.74 5.46 2.03 7.75L0 32l8.48-2.22A15.93 15.93 0 0 0 16 32c8.84 0 16-7.16 16-16S24.84 0 16 0zm0 29.33c-2.51 0-4.84-.73-6.81-1.98l-.49-.3-5.03 1.32 1.34-4.9-.32-.51A13.28 13.28 0 1 1 16 29.33zm7.37-9.87c-.4-.2-2.35-1.16-2.72-1.3-.36-.13-.62-.2-.88.2s-1 1.3-1.22 1.57c-.22.27-.44.3-.82.1-.4-.2-1.67-.61-3.18-1.95-1.17-1.04-1.96-2.32-2.18-2.72-.22-.4-.02-.61.17-.8.17-.17.4-.44.6-.66.2-.22.27-.37.4-.61.13-.24.07-.46-.03-.66-.1-.2-.88-2.12-1.2-2.9-.31-.76-.63-.66-.88-.67h-.75c-.24 0-.63.1-.96.46-.33.36-1.26 1.23-1.26 3 0 1.76 1.29 3.47 1.47 3.71.2.24 2.53 3.86 6.13 5.41.86.37 1.53.59 2.05.76.86.27 1.64.23 2.25.14.69-.1 2.35-.96 2.68-1.89.33-.93.33-1.73.23-1.89-.1-.16-.36-.26-.75-.46z" fill="black"></path>
</svg>